<?xml version="1.0" standalone="no"?>
<!DOCTYPE svg PUBLIC "-//W3C//DTD SVG 20010904//EN"
 "http://www.w3.org/TR/2001/REC-SVG-20010904/DTD/svg10.dtd">
<svg version="1.0" xmlns="http://www.w3.org/2000/svg"
 width="512.000000pt" height="512.000000pt" viewBox="0 0 512.000000 512.000000"
 preserveAspectRatio="xMidYMid meet">

<g transform="translate(0.000000,512.000000) scale(0.100000,-0.100000)"
fill="#000000" stroke="none">
<path d="M784 4671 c-302 -75 -523 -324 -565 -636 -16 -127 -7 -610 15 -692
57 -222 214 -410 419 -503 135 -60 172 -65 522 -65 305 0 324 1 400 23 221 64
383 198 480 397 71 147 77 190 73 571 -4 327 -4 330 -31 409 -39 117 -91 199
-187 295 -96 96 -178 148 -295 188 l-80 27 -340 2 c-298 2 -349 0 -411 -16z
m725 -206 c93 -22 177 -71 251 -145 74 -74 123 -158 145 -251 21 -91 21 -576
0 -668 -41 -172 -172 -320 -340 -384 -57 -21 -77 -22 -367 -25 -341 -3 -379 1
-493 61 -124 66 -236 215 -265 351 -7 36 -10 160 -8 358 3 286 4 306 25 363
63 166 211 298 379 339 87 21 585 21 673 1z"/>
<path d="M3551 4670 c-146 -39 -256 -105 -361 -217 -79 -84 -132 -171 -167
-278 -27 -79 -27 -82 -31 -409 -4 -381 2 -423 73 -571 95 -197 262 -335 480
-397 76 -22 96 -23 400 -23 281 0 328 2 390 19 279 75 476 272 551 551 17 62
19 109 19 390 0 305 -1 324 -23 400 -64 222 -197 383 -397 480 -144 69 -186
75 -547 74 -276 0 -322 -2 -387 -19z m728 -205 c172 -41 320 -172 384 -340 21
-57 22 -77 25 -363 3 -339 -1 -375 -55 -484 -68 -134 -213 -248 -357 -278 -36
-7 -160 -10 -358 -8 -286 3 -306 4 -363 25 -168 64 -299 212 -340 384 -21 92
-21 577 0 668 44 185 208 351 391 395 87 21 585 21 673 1z"/>
<path d="M890 2344 c-97 -15 -154 -30 -217 -55 -214 -89 -381 -283 -439 -512
-21 -81 -31 -544 -15 -682 38 -323 269 -581 582 -650 64 -14 126 -16 405 -13
327 4 330 4 409 31 117 39 199 91 295 187 96 96 148 178 187 295 27 79 27 82
31 409 4 381 -2 424 -73 571 -112 231 -323 383 -577 415 -76 9 -530 12 -588 4z
m675 -241 c168 -64 299 -212 340 -384 18 -79 21 -567 4 -651 -42 -201 -216
-375 -417 -417 -84 -17 -572 -14 -651 4 -172 41 -320 172 -384 340 -21 57 -22
77 -25 363 -2 198 1 322 8 358 29 137 141 285 266 351 112 59 136 62 484 60
300 -2 318 -3 375 -24z"/>
<path d="M3825 2339 c-384 -50 -704 -332 -807 -710 -20 -72 -23 -107 -22 -249
0 -150 3 -173 28 -254 51 -169 128 -298 246 -416 118 -118 247 -195 416 -246
81 -25 104 -28 254 -28 142 -1 177 2 248 22 638 174 921 913 558 1456 -137
204 -346 351 -581 406 -98 23 -247 32 -340 19z"/>
</g>
</svg>
